<?xml version="1.0" ?><!DOCTYPE svg  PUBLIC '-//W3C//DTD SVG 1.1//EN'  'http://www.w3.org/Graphics/SVG/1.1/DTD/svg11.dtd'><svg enable-background="new 0 0 80 80" height="80px" id="Icons" version="1.1" viewBox="0 0 80 80" width="80px" xml:space="preserve" xmlns="http://www.w3.org/2000/svg" xmlns:xlink="http://www.w3.org/1999/xlink"><g><path d="M40,49c4.971,0,9-4.029,9-9V24c0-4.971-4.029-9-9-9s-9,4.029-9,9v16C31,44.971,35.029,49,40,49z M36,24   c0-2.206,1.794-4,4-4s4,1.794,4,4v16c0,2.206-1.794,4-4,4s-4-1.794-4-4V24z"/><path d="M59,40h-5c0,7.72-6.28,14-14,14s-14-6.28-14-14h-5c0,9.627,7.204,17.586,16.5,18.816V62H29v5h22v-5h-8.5v-3.184   C51.796,57.586,59,49.627,59,40z"/></g></svg>